SplineFontDB: 3.0
FontName: SouthArabianPetroglyph
FullName: South Arabian Petroglyph
FamilyName: South Arabian Petroglyph
Weight: Medium
Copyright: (C) 2011 Thomas Kaeding
UComments: ""
Version: 1.002
ItalicAngle: 0
UnderlinePosition: -100
UnderlineWidth: 50
Ascent: 1000
Descent: 200
LayerCount: 2
Layer: 0 0 "Back"  1
Layer: 1 0 "Fore"  0
NeedsXUIDChange: 1
XUID: [1021 114 24073053 13289458]
OS2Version: 0
OS2_WeightWidthSlopeOnly: 0
OS2_UseTypoMetrics: 1
CreationTime: 1316303917
ModificationTime: 1320100376
OS2TypoAscent: 0
OS2TypoAOffset: 1
OS2TypoDescent: 0
OS2TypoDOffset: 1
OS2TypoLinegap: 0
OS2WinAscent: 0
OS2WinAOffset: 1
OS2WinDescent: 0
OS2WinDOffset: 1
HheadAscent: 0
HheadAOffset: 1
HheadDescent: 0
HheadDOffset: 1
OS2Vendor: 'PfEd'
DEI: 91125
Encoding: ISO8859-1
UnicodeInterp: none
NameList: Adobe Glyph List
DisplaySize: -24
AntiAlias: 1
FitToEm: 1
WinInfo: 0 31 11
Grid
-6.85794639587 1300 m 0
 -6.85794639587 -700 l 0
EndSplineSet
BeginChars: 256 30

StartChar: h
Encoding: 104 104 1
Width: 652
VWidth: 0
Flags: HW
LayerCount: 2
Fore
SplineSet
257 435 m 13
 251 -3 l 29
 362 -3 l 29
 359 426 l 21
 431 450 496.592773438 458.756835938 536 528 c 28
 587.896484375 619.189453125 575 717 569 795 c 4
 568.485351562 801.688476562 479.115234375 797.998046875 479 795 c 4
 476 717 485 657 452 585 c 4
 427.349609375 531.216796875 373.09765625 519.211914062 314 522 c 28
 237.577148438 525.604492188 182.26953125 540.641601562 134 600 c 28
 84.9189453125 660.356445312 98 735 92 795 c 4
 91.578125 799.221679688 2 801 2 798 c 4
 2 701.953125 -2.205078125 618.126953125 59 531 c 28
 108.330078125 460.77734375 179 453 257 435 c 13
EndSplineSet
EndChar

StartChar: l
Encoding: 108 108 2
Width: 533
VWidth: 0
Flags: HW
LayerCount: 2
Fore
SplineSet
0 531 m 25
 350 795 l 25
 425.000015259 798 l 25
 443 0 l 25
 341 0 l 25
 344.000015259 660 l 25
 62.0000038147 462 l 25
 0 531 l 25
EndSplineSet
EndChar

StartChar: H
Encoding: 72 72 3
Width: 679
VWidth: 0
Flags: HW
LayerCount: 2
Fore
SplineSet
431 540 m 18
 498.30078125 584.166015625 494 717 497 795 c 0
 497.115234375 797.998046875 583.485351562 798.688476562 584 792 c 0
 590 714 590.804890822 617.14928907 536 528 c 24
 494.275390625 460.127929688 431 450 359 426 c 9
 362 -3 l 25
 251 -3 l 25
 257 435 l 17
 179 453 108.330002469 460.777290603 59 531 c 24
 -2.205078125 618.126953125 2 701.953125 2 798 c 0
 2 801 91.578125 799.221679688 92 795 c 0
 98 735 84.9189453125 660.356445312 134 600 c 16
 173.650212299 551.241020188 266.000015259 531 266.000015259 531 c 10
 269 804 l 26
 359 801 l 25
 353 522 l 26
 431 540 l 18
314 522 m 0
EndSplineSet
EndChar

StartChar: m
Encoding: 109 109 4
Width: 542
VWidth: 0
Flags: HW
LayerCount: 2
Fore
SplineSet
344.799804688 99.2001953125 m 25
 347.799804688 333.200195312 l 25
 143.799804688 234.200195312 l 29
 344.799804688 99.2001953125 l 25
344.799804688 459.200195312 m 25
 338.799804688 702.200195312 l 25
 149.799804688 573.200195312 l 25
 344.799804688 459.200195312 l 25
11.0000038147 573 m 25
 341.000015259 798 l 25
 428.000015259 798 l 25
 440.000015259 0 l 25
 344 0 l 25
 0 252 l 25
 290 393 l 25
 11.0000038147 573 l 25
EndSplineSet
EndChar

StartChar: q
Encoding: 113 113 5
Width: 500
VWidth: 0
Flags: HW
LayerCount: 2
Fore
SplineSet
242 540 m 24
 181.443359375 554.942382812 112.135742188 536.973632812 95 477 c 24
 78.220703125 418.274414062 128.703125 365.631835938 188 351 c 24
 246.419921875 336.584960938 309.469726562 362.142578125 326 420 c 24
 341.694335938 474.928710938 297.462890625 526.314453125 242 540 c 24
164 609 m 9
 161 801 l 25
 268 803.900390625 l 25
 262 617.900390625 l 17
 316 608.900390625 365 558 365 558 c 17
 416 510 412.92578125 402.111328125 401 381 c 1
 359 321 331 293.610351562 265 275.610351562 c 4
 260.907226562 274.494140625 266.830078125 107.48828125 268 0 c 25
 164 0 l 25
 167 279 l 17
 101 300 50.3561695363 318.169788634 20 381 c 24
 -8.16015625 439.28515625 3.43344678205 491.269624072 38 546 c 24
 67.337890625 592.451171875 113 606 164 609 c 9
EndSplineSet
EndChar

StartChar: w
Encoding: 119 119 6
Width: 765
VWidth: 0
Flags: HW
LayerCount: 2
Fore
SplineSet
377 708 m 0
 374.002929688 707.870117188 397.999984867 101.999998047 398 102 c 0
 491.000015259 114 537.142046521 164.673040194 566 246 c 24
 607.866210938 363.987304688 610.403054135 451.125867671 563 567 c 24
 528.534179688 651.25 446 711 377 708 c 0
302 711 m 0
 197.745117188 711 151.12023336 638.556595067 116 549 c 24
 73.703125 441.143554688 76.5345211684 358.559716012 122 252 c 24
 158.861328125 165.606445312 227 120 308 99 c 4
 312.106445312 97.935546875 302 711 302 711 c 0
335 798 m 0
 437.000015259 798 531.604492188 756.046875 593 666 c 0
 638 600 673.008789062 554.698242188 677 423 c 0
 680 324 671 273 623 162 c 0
 580.86328125 64.5595703125 494.000015259 0 377 0 c 0
 270.042823617 0 186.207157535 12.0255047959 113 93 c 24
 23.2529296875 192.26953125 0 231 0 417 c 0
 0 529.776630987 24.9757637429 623.712734287 107 717 c 24
 169.310546875 787.866210938 246.311072288 798 335 798 c 0
EndSplineSet
EndChar

StartChar: s
Encoding: 115 115 7
Width: 693
VWidth: 0
Flags: HW
LayerCount: 2
Fore
SplineSet
0 0 m 25
 0 441 l 25
 236 444 l 29
 230 798 l 25
 338 798 l 25
 338.000015259 444 l 25
 578.000015259 447 l 25
 596 0 l 25
 503.000015259 0 l 25
 491.000015259 369 l 25
 95 363 l 25
 95.0000038147 0 l 25
 0 0 l 25
EndSplineSet
EndChar

StartChar: r
Encoding: 114 114 8
Width: 528
VWidth: 0
Flags: HW
LayerCount: 2
Fore
SplineSet
0 702 m 0
 0 702 -2.9995490342 801.0520153 0 801 c 0
 173.000003815 798 317.767624599 710.805896416 389 600 c 0
 470.000015259 474 473.143068583 295.292650771 377 147 c 24
 291.149414062 14.5830078125 175.465045382 0 -0 0 c 0
 0 96 l 0
 152 93 235.35627597 115.629986 302 225 c 24
 371.470703125 339.009765625 358.416888423 454.199153054 287 567 c 24
 220.833007812 671.509765625 78.447265625 702 0 702 c 0
EndSplineSet
EndChar

StartChar: b
Encoding: 98 98 9
Width: 590
VWidth: 0
Flags: HW
LayerCount: 2
Fore
SplineSet
0 0 m 25
 0 801 l 25
 467.000015259 798 l 25
 497.000015259 0 l 25
 392.000015259 0 l 25
 386.000015259 714 l 25
 89.0000038147 723 l 25
 89.0000038147 0 l 25
 0 0 l 25
EndSplineSet
EndChar

StartChar: t
Encoding: 116 116 10
Width: 668
VWidth: 0
Flags: HW
LayerCount: 2
Fore
SplineSet
0 747 m 25
 98.0000038147 798 l 25
 296 489 l 25
 440.000015259 801 l 25
 539.000015259 747 l 25
 353 399 l 25
 572 48 l 25
 503 0 l 25
 296 330 l 25
 86.0000038147 0 l 25
 0 45 l 25
 245 405 l 29
 0 747 l 25
EndSplineSet
EndChar

StartChar: S
Encoding: 83 83 11
Width: 660
VWidth: 0
Flags: HW
LayerCount: 2
Fore
SplineSet
299 543 m 25
 143 444 l 25
 293 321 l 25
 431 444 l 25
 299 543 l 25
0 741 m 25
 59.0000038147 804 l 25
 287.000015259 648 l 25
 479.000015259 798 l 25
 566.000015259 744 l 25
 371 597 l 29
 563.000015259 435 l 25
 362.000015259 264 l 25
 569.000015259 48 l 25
 500.000015259 0 l 25
 302 201 l 25
 101.000003815 0 l 25
 0 75 l 25
 239.000015259 276 l 25
 0 453 l 25
 221.000015259 588 l 25
 0 741 l 25
EndSplineSet
EndChar

StartChar: k
Encoding: 107 107 12
Width: 590
VWidth: 0
Flags: HW
LayerCount: 2
Fore
SplineSet
0 0 m 25
 0 483 l 25
 299.000015259 804 l 25
 368.000015259 747 l 25
 104.000003815 483 l 25
 464.000015259 489 l 25
 500.000015259 0 l 25
 398.000015259 0 l 25
 386.000015259 411 l 25
 98.0000038147 414 l 25
 98.0000038147 0 l 25
 0 0 l 25
EndSplineSet
EndChar

StartChar: n
Encoding: 110 110 13
Width: 659
VWidth: 0
Flags: HW
LayerCount: 2
Fore
SplineSet
0 804 m 25
 119.000003815 804 l 25
 104 504 l 29
 557.000015259 510 l 25
 569.000015259 0 l 25
 458.000015259 0 l 25
 470.000015259 426 l 25
 0 414 l 25
 0 804 l 25
EndSplineSet
EndChar

StartChar: E
Encoding: 69 69 14
Width: 652
VWidth: 0
Flags: HW
LayerCount: 2
Fore
SplineSet
257 435 m 9
 257 210 l 17
 482 210 l 1
 467.000015259 0 l 5
 563 0 l 1
 563 294 l 1
 362 291 l 9
 359 426 l 17
 431 450 496.593187241 458.756600438 536 528 c 24
 587.896484375 619.189453125 575 717 569 795 c 0
 568.485351562 801.688476562 479.115234375 797.998046875 479 795 c 0
 476 717 485 657 452 585 c 0
 427.349609375 531.216796875 373.097677932 519.212373682 314 522 c 24
 237.577148438 525.604492188 182.269492491 540.641570044 134 600 c 24
 84.9189453125 660.356445312 98 735 92 795 c 0
 91.578125 799.221679688 2 801 2 798 c 0
 2 701.953125 -2.20494842885 618.127044234 59 531 c 24
 108.330078125 460.77734375 179 453 257 435 c 9
EndSplineSet
EndChar

StartChar: W
Encoding: 87 87 15
Width: 558
VWidth: 0
Flags: HW
LayerCount: 2
Fore
SplineSet
0 726 m 25
 32.0000038147 801 l 25
 455.000015259 594 l 25
 155 396 l 25
 464.000015259 195 l 25
 38.0000038147 0 l 25
 0 90 l 25
 263 204 l 25
 0 393 l 25
 275.000015259 579 l 25
 0 726 l 25
EndSplineSet
EndChar

StartChar: f
Encoding: 102 102 16
Width: 691
VWidth: 0
Flags: HW
LayerCount: 2
Fore
SplineSet
320.900390625 668.599609375 m 25
 107.000003815 426 l 25
 314.900390625 161.599609375 l 29
 506.000015259 435 l 25
 320.900390625 668.599609375 l 25
317 804 m 25
 602.000015259 432 l 25
 326 0 l 25
 0 438 l 25
 317 804 l 25
EndSplineSet
EndChar

StartChar: quotesingle
Encoding: 39 39 17
Width: 750
VWidth: 0
Flags: HW
LayerCount: 2
Fore
SplineSet
0 801 m 25
 101 801 l 25
 98 633 l 29
 380 732 l 25
 383 432 l 25
 653.000015259 444 l 25
 662.000015259 0 l 25
 569.000015259 0 l 25
 560 354 l 25
 92 351 l 25
 107 0 l 25
 0 0 l 25
 0 435 l 25
 287 435 l 25
 293 609 l 25
 0 513 l 25
 0 801 l 25
EndSplineSet
EndChar

StartChar: a
Encoding: 97 97 18
Width: 501
VWidth: 0
Flags: HW
LayerCount: 2
Fore
SplineSet
200 567 m 28
 142.3359375 561.393554688 96.296875 516.91015625 98 459 c 28
 99.6572265625 402.669921875 149.91015625 357.546875 206 363 c 28
 267.806640625 369.008789062 315.825195312 417.928710938 314 480 c 28
 312.35546875 535.903320312 255.665039062 572.412109375 200 567 c 28
197 654 m 28
 304.69921875 660.154296875 412.217773438 596.662109375 419 489 c 28
 426.184570312 374.94921875 335.090820312 279.51953125 221 273 c 28
 106.717773438 266.469726562 6.1962890625 350.7578125 -1 465 c 28
 -7.7109375 571.541015625 90.4208984375 647.91015625 197 654 c 28
EndSplineSet
EndChar

StartChar: d
Encoding: 100 100 19
Width: 588
VWidth: 0
Flags: HW
LayerCount: 2
Fore
SplineSet
86.0000038147 345 m 25
 95.0000038147 90 l 25
 407.000015259 84 l 25
 392 345 l 25
 86.0000038147 345 l 25
86.0000038147 711 m 25
 83.0000038147 432 l 25
 389 429 l 25
 377 711 l 25
 86.0000038147 711 l 25
0 0 m 25
 0 798 l 25
 455.000015259 795 l 25
 497.000015259 0 l 25
 0 0 l 25
EndSplineSet
EndChar

StartChar: g
Encoding: 103 103 20
Width: 570
VWidth: 0
Flags: HW
LayerCount: 2
Fore
SplineSet
0 699 m 25
 0 804 l 25
 479.000015259 801 l 25
 470.000015259 0 l 25
 332.000015259 0 l 25
 398.000015259 708 l 25
 0 699 l 25
EndSplineSet
EndChar

StartChar: D
Encoding: 68 68 21
Width: 530
VWidth: 0
Flags: HW
LayerCount: 2
Fore
SplineSet
80 510 m 25
 82 366.200195312 l 25
 253 432.200195312 l 29
 80 510 l 25
0 237.200195312 m 25
 0 648 l 25
 341 480 l 25
 326 795 l 25
 443 798 l 25
 449 0 l 25
 344 0 l 25
 347 387 l 25
 0 237.200195312 l 25
EndSplineSet
EndChar

StartChar: G
Encoding: 71 71 22
Width: 762
VWidth: 0
Flags: HW
LayerCount: 2
Fore
SplineSet
44.0000038147 519 m 25
 0 609 l 25
 239.000015259 798 l 25
 638 801 l 25
 662.000015259 0 l 25
 566.000015259 0 l 25
 560.000015259 720 l 25
 308 726 l 29
 332.000015259 0 l 25
 224.000015259 0 l 25
 230 690 l 25
 44.0000038147 519 l 25
EndSplineSet
EndChar

StartChar: T
Encoding: 84 84 23
Width: 614
VWidth: 0
Flags: HWO
LayerCount: 2
Fore
SplineSet
290 99 m 25
 410 99 l 25
 413 729 l 25
 296 729 l 25
 290 99 l 25
74 99 m 25
 212 96 l 25
 209 729 l 25
 92 726 l 25
 74 99 l 25
0 0 m 25
 14.0000038147 801 l 25
 497 801 l 25
 518 0 l 25
 0 0 l 25
EndSplineSet
EndChar

StartChar: z
Encoding: 122 122 24
Width: 666
VWidth: 0
Flags: HW
LayerCount: 2
Fore
SplineSet
293 342 m 25
 137 78 l 25
 455 75 l 25
 293 342 l 25
383 732 m 25
 143 732 l 25
 281 480 l 25
 383 732 l 25
0 795 m 25
 512 798 l 25
 344 429 l 25
 587.000015259 0 l 25
 0 0 l 25
 218.000015259 420 l 25
 0 795 l 25
EndSplineSet
EndChar

StartChar: zero
Encoding: 48 48 25
Width: 672
VWidth: 0
Flags: HW
LayerCount: 2
Fore
SplineSet
0 0 m 25
 0 798 l 25
 113.000003815 804 l 25
 110 483 l 25
 458.000015259 483 l 25
 452 798 l 29
 557.000015259 798 l 25
 575.000015259 0 l 25
 470.000015259 0 l 25
 464.000015259 396 l 25
 107 405 l 25
 125.000003815 0 l 25
 0 0 l 25
EndSplineSet
EndChar

StartChar: y
Encoding: 121 121 26
Width: 501
VWidth: 0
Flags: HW
LayerCount: 2
Fore
SplineSet
200 711 m 28
 142.3359375 705.393554688 96.296875 660.91015625 98 603 c 28
 99.6572265625 546.669921875 149.91015625 501.546875 206 507 c 28
 267.806640625 513.008789062 315.825195312 561.928710938 314 624 c 28
 312.35546875 679.903320312 255.665039062 716.412109375 200 711 c 28
197 798 m 28
 304.69921875 804.154296875 412.217773438 740.661132812 419 633 c 20
 424.875086214 539.736500107 344.396484375 452.924804688 260 423 c 5
 257.000015259 420 260.000015259 0 260 0 c 4
 245.711088837 0 186.682617188 -1.896484375 173 0 c 5
 162.772460938 1.41796875 176.750976562 414.182617188 167 417 c 5
 85.302734375 440.609375 4.62645084208 519.679233911 -1 609 c 12
 -7.7109375 715.541015625 90.4209206856 791.909766896 197 798 c 28
EndSplineSet
EndChar

StartChar: one
Encoding: 49 49 27
Width: 501
VWidth: 0
Flags: HW
LayerCount: 2
Fore
SplineSet
254 264 m 28
 193.833007812 282.700195312 125.690286216 263.155326044 104 204 c 28
 84.333984375 150.365234375 133.447407757 100.955535427 188 84 c 28
 242.791992188 66.9697265625 306.247558115 81.1297039492 326 135 c 28
 345.834960938 189.09375 309.019508808 246.899341857 254 264 c 28
200 711 m 28
 142.3359375 705.393554688 96.296875 660.91015625 98 603 c 28
 99.6572265625 546.669921875 149.91015625 501.546875 206 507 c 28
 267.806640625 513.008789062 315.825195312 561.928710938 314 624 c 28
 312.35546875 679.903320312 255.665039062 716.412109375 200 711 c 28
197 798 m 28
 304.69921875 804.154296875 412.217773438 740.661132812 419 633 c 20
 424.875086214 539.736500107 344.396484375 452.924804688 260 423 c 5
 258.845654418 421.845648547 249.762695312 335.788085938 254 336 c 4
 314 339 422.000015259 264 422 153 c 4
 421.999982262 23.9651206396 260 -0 260 -0 c 4
 245.7109375 -0 186.682617188 -1.896484375 173 0 c 5
 168.901882703 0.56817209156 0 30 0 165 c 4
 0 279 86 333 167 351 c 4
 169.928710938 351.650390625 170.693162363 415.932922041 167 417 c 1
 85.302734375 440.609375 4.62645084208 519.679233911 -1 609 c 12
 -7.7109375 715.541015625 90.4209206856 791.909766896 197 798 c 28
EndSplineSet
EndChar

StartChar: two
Encoding: 50 50 28
Width: 501
VWidth: 0
Flags: HW
LayerCount: 2
Fore
SplineSet
165.896484375 500.692382812 m 24
 101.720703125 528.276367188 61.0245661223 603.057536089 93.896484375 664.692382812 c 24
 128.705078125 729.958984375 209.939322595 739.902040069 277.896484375 710.692382812 c 24
 331.846679688 687.502929688 349.530945881 618.506998136 321.896484375 566.692382812 c 24
 290.80859375 508.403320312 226.588808139 474.60533137 165.896484375 500.692382812 c 24
170 333 m 0
 167.896484375 332.693359375 103.44140625 316.590820312 63.896484375 282.692382812 c 0
 20.146484375 245.190429688 1.57571956221 143.390480161 -0 0 c 0
 -0.033203125 -3 83.798828125 0.568359375 87.896484375 0 c 1
 81.71484375 72.6318359375 85.1232234491 161.844751516 117.896484375 206.692382812 c 0
 155.896697998 258.692687988 220.442382812 256.147460938 221.896484375 254.692382812 c 1
 221.896484375 248.692382812 293.5546875 262.891601562 329 192 c 0
 338 174 341 156 332 0 c 1
 302.420898438 0.0439453125 416.58984375 -0.1376953125 419 0 c 1
 419 0 422 23.96484375 422 153 c 0
 422 264 314 339 254 336 c 0
 249.762695312 335.788085938 258.845703125 421.845703125 260 423 c 1
 344.396484375 452.924804688 424.875 539.736328125 419 633 c 8
 412.217773438 740.661132812 304.699221928 804.154241253 197 798 c 24
 90.4208984375 791.91015625 -7.7119140625 715.541015625 -1 609 c 16
 4.626953125 519.6796875 68 444 170 429 c 0
 170 333 l 0
EndSplineSet
EndChar

StartChar: Z
Encoding: 90 90 29
Width: 501
VWidth: 0
Flags: HW
LayerCount: 2
Fore
SplineSet
140.000003815 528 m 28
 91.9814453125 550.217773438 67.1045630782 614.047800571 98.0000038147 657 c 24
 136.774414062 710.905273438 202.73610058 726.883297276 263 699 c 28
 312.453125 676.119140625 330.818392597 608.235327666 299 564 c 28
 261.874023438 512.385742188 197.702237794 501.301950936 140.000003815 528 c 28
170 333 m 4
 167.000003815 243 164.000003815 273 161 0 c 4
 160.967034874 -2.99982269287 252.90234375 0.568359375 257 0 c 5
 245.000015259 141 242.000015259 237 245 234 c 5
 245.000015259 228 293.554222111 262.891435587 329 192 c 4
 338.000015259 174 341.000015259 156 332 0 c 5
 302.420898438 0.0439453125 416.58984375 -0.1376953125 419 0 c 5
 419 0 421.999982262 23.9651206396 422 153 c 4
 422.000015259 264 314 339 254 336 c 4
 249.762695312 335.788085938 258.845654418 421.845648547 260 423 c 5
 344.396484375 452.924804688 424.875086214 539.736500107 419 633 c 12
 412.217773438 740.661132812 304.699221928 804.154241253 197 798 c 28
 90.4208984375 791.91015625 -7.7109375 715.541015625 -1 609 c 20
 4.62645084208 519.679233911 68.0000038147 444 170.000003815 429 c 4
 170 333 l 4
EndSplineSet
EndChar
